<svg width="60" height="40" viewBox="0 0 60 40" fill="none" xmlns="http://www.w3.org/2000/svg">
<g clip-path="url(#clip0)">
<path d="M27.4011 39.9903C26.6809 39.9912 26.0961 39.6026 26.0947 39.1225C26.0941 38.891 26.232 38.6689 26.4779 38.5054L54.2451 19.9957L26.4779 1.48596C25.9775 1.14065 25.9919 0.590283 26.5099 0.256705C27.0153 -0.0686413 27.8164 -0.0686413 28.3216 0.256705L57.0095 19.382C57.5186 19.7214 57.5186 20.2717 57.0095 20.6112L28.3217 39.7364C28.0774 39.899 27.7463 39.9903 27.4011 39.9903Z" fill="black" fill-opacity="0.4"/>
<path d="M3.92989 39.9898C3.20972 39.9906 2.62488 39.6021 2.62354 39.1219C2.62293 38.8905 2.76082 38.6684 3.00667 38.5049L30.7739 19.9951L3.00667 1.48543C2.49676 1.1455 2.49676 0.594398 3.00667 0.254463C3.51657 -0.085472 4.34322 -0.085472 4.85312 0.254463L33.541 19.3797C34.0501 19.7192 34.0501 20.2695 33.541 20.609L4.85312 39.7342C4.6085 39.8977 4.27635 39.9898 3.92989 39.9898Z" fill="black" fill-opacity="0.4"/>
</g>
<defs>
<clipPath id="clip0">
<rect width="60" height="40" fill="white"/>
</clipPath>
</defs>
</svg>
