<svg width="47" height="50" viewBox="0 0 47 50" fill="none" xmlns="http://www.w3.org/2000/svg">
<g clip-path="url(#clip0)">
<path d="M44.6531 22.5H25.9852V2.49985C25.9852 1.12015 24.9397 0 23.6514 0C22.3636 0 21.3181 1.12015 21.3181 2.49985V22.5H2.64978C1.36196 22.5 0.316406 23.6201 0.316406 24.9998C0.316406 26.38 1.36196 27.5002 2.64978 27.5002H21.3181V47.4999C21.3181 48.88 22.3636 50.0002 23.6514 50.0002C24.9397 50.0002 25.9852 48.88 25.9852 47.4999V27.5002H44.6531C45.9413 27.5002 46.9869 26.38 46.9869 24.9998C46.9869 23.6201 45.9413 22.5 44.6531 22.5V22.5Z" fill="black" fill-opacity="0.39"/>
</g>
<defs>
<clipPath id="clip0">
<rect width="46.6703" height="50" fill="white" transform="translate(0.316406)"/>
</clipPath>
</defs>
</svg>
